<svg width="34" height="34" viewBox="0 0 34 34" fill="none" xmlns="http://www.w3.org/2000/svg">
<path d="M31.7193 8.46672C30.1992 5.86208 28.1371 3.79998 25.5327 2.27995C22.9279 0.759856 20.0843 0 16.9997 0C13.9156 0 11.071 0.760088 8.46672 2.27995C5.86208 3.7999 3.80013 5.86208 2.27996 8.46672C0.760011 11.0713 0 13.9155 0 16.9993C0 20.7036 1.08075 24.0346 3.24278 26.9931C5.40458 29.9519 8.19731 31.9993 11.6207 33.1355C12.0192 33.2094 12.3142 33.1574 12.506 32.9807C12.6979 32.8038 12.7937 32.5822 12.7937 32.3169C12.7937 32.2727 12.7899 31.8744 12.7826 31.1217C12.775 30.369 12.7714 29.7123 12.7714 29.152L12.2623 29.2401C11.9377 29.2995 11.5282 29.3247 11.0338 29.3176C10.5396 29.3107 10.0266 29.2589 9.49545 29.1626C8.96407 29.0672 8.46982 28.8458 8.01233 28.4991C7.55506 28.1523 7.23045 27.6983 7.03857 27.138L6.81723 26.6286C6.66969 26.2895 6.43742 25.9128 6.12009 25.4999C5.80277 25.0866 5.48188 24.8064 5.15727 24.6588L5.00229 24.5479C4.89902 24.4742 4.80319 24.3852 4.71458 24.282C4.62604 24.1789 4.55975 24.0756 4.51549 23.9722C4.47114 23.8687 4.50789 23.7838 4.62612 23.7172C4.74435 23.6506 4.95802 23.6183 5.26805 23.6183L5.71059 23.6844C6.00574 23.7435 6.37082 23.9202 6.8063 24.2155C7.24154 24.5106 7.59933 24.8942 7.87975 25.3662C8.21933 25.9714 8.62845 26.4325 9.10827 26.7499C9.5877 27.0672 10.0711 27.2256 10.558 27.2256C11.0449 27.2256 11.4654 27.1887 11.8197 27.1152C12.1736 27.0414 12.5056 26.9305 12.8157 26.783C12.9485 25.7939 13.3101 25.0341 13.9001 24.5029C13.0591 24.4145 12.303 24.2814 11.6314 24.1044C10.9601 23.9272 10.2665 23.6396 9.55088 23.2408C8.8349 22.8425 8.24096 22.3479 7.76889 21.758C7.29674 21.1677 6.90925 20.3927 6.60697 19.4337C6.30453 18.4744 6.15327 17.3678 6.15327 16.1135C6.15327 14.3276 6.73629 12.8079 7.90208 11.5535C7.35597 10.2109 7.40753 8.70574 8.05691 7.03826C8.48486 6.9053 9.11951 7.00508 9.96054 7.33698C10.8017 7.66903 11.4176 7.95348 11.8088 8.18932C12.2 8.42509 12.5135 8.62488 12.7496 8.78691C14.1223 8.40338 15.5388 8.21157 16.9996 8.21157C18.4604 8.21157 19.8772 8.40338 21.2499 8.78691L22.091 8.25592C22.6662 7.90162 23.3454 7.57693 24.1271 7.28178C24.9092 6.98678 25.5072 6.90553 25.9206 7.03849C26.5844 8.70605 26.6436 10.2111 26.0973 11.5537C27.263 12.8082 27.8463 14.3283 27.8463 16.1137C27.8463 17.368 27.6945 18.4781 27.3925 19.4448C27.0901 20.4117 26.6993 21.1859 26.2199 21.769C25.7399 22.3521 25.1421 22.8428 24.4266 23.241C23.7108 23.6395 23.0169 23.9271 22.3457 24.1044C21.6741 24.2816 20.918 24.4148 20.077 24.5033C20.8441 25.1671 21.2277 26.2149 21.2277 27.6462V32.3163C21.2277 32.5816 21.3199 32.8031 21.5046 32.9801C21.689 33.1568 21.9803 33.2088 22.3788 33.1348C25.8027 31.9988 28.5954 29.9513 30.7571 26.9925C32.9186 24.034 33.9998 20.7029 33.9998 16.9986C33.999 13.9153 33.2386 11.0713 31.7193 8.46672Z" fill="white"/>
</svg>
