<svg width="30" height="30" viewBox="0 0 30 30" fill="none" xmlns="http://www.w3.org/2000/svg">
<path d="M12.12 13.29C12.195 12.795 12.36 12.36 12.57 11.985C12.78 11.61 13.08 11.295 13.455 11.055C13.815 10.83 14.265 10.725 14.82 10.71C15.165 10.725 15.48 10.785 15.765 10.905C16.065 11.04 16.335 11.22 16.545 11.445C16.755 11.67 16.92 11.94 17.055 12.24C17.19 12.54 17.25 12.87 17.265 13.2H19.95C19.92 12.495 19.785 11.85 19.53 11.265C19.275 10.68 18.93 10.17 18.48 9.75C18.03 9.33 17.49 9 16.86 8.76C16.23 8.52 15.54 8.415 14.775 8.415C13.8 8.415 12.945 8.58 12.225 8.925C11.505 9.27 10.905 9.72 10.425 10.305C9.945 10.89 9.585 11.565 9.36 12.345C9.135 13.125 9 13.935 9 14.805V15.21C9 16.08 9.12 16.89 9.345 17.67C9.57 18.45 9.93 19.125 10.41 19.695C10.89 20.265 11.49 20.73 12.21 21.06C12.93 21.39 13.785 21.57 14.76 21.57C15.465 21.57 16.125 21.45 16.74 21.225C17.355 21 17.895 20.685 18.36 20.28C18.825 19.875 19.2 19.41 19.47 18.87C19.74 18.33 19.905 17.76 19.92 17.145H17.235C17.22 17.46 17.145 17.745 17.01 18.015C16.875 18.285 16.695 18.51 16.47 18.705C16.245 18.9 15.99 19.05 15.69 19.155C15.405 19.26 15.105 19.29 14.79 19.305C14.25 19.29 13.8 19.185 13.455 18.96C13.08 18.72 12.78 18.405 12.57 18.03C12.36 17.655 12.195 17.205 12.12 16.71C12.045 16.215 12 15.705 12 15.21V14.805C12 14.28 12.045 13.785 12.12 13.29ZM15 0C6.72 0 0 6.72 0 15C0 23.28 6.72 30 15 30C23.28 30 30 23.28 30 15C30 6.72 23.28 0 15 0ZM15 27C8.385 27 3 21.615 3 15C3 8.385 8.385 3 15 3C21.615 3 27 8.385 27 15C27 21.615 21.615 27 15 27Z" fill="white"/>
</svg>
