<svg width="47" height="42" viewBox="0 0 47 42" fill="none" xmlns="http://www.w3.org/2000/svg">
<path d="M0 4.56944V36.5556C0 39.0688 2.32389 41.125 5.22222 41.125H41.7778C44.65 41.125 47 39.0688 47 36.5556V4.56944C47 2.05625 44.65 0 41.7778 0H5.22222C2.32389 0 0 2.05625 0 4.56944ZM31.3333 13.7083C31.3333 17.501 27.8344 20.5625 23.5 20.5625C19.1656 20.5625 15.6667 17.501 15.6667 13.7083C15.6667 9.9157 19.1656 6.85417 23.5 6.85417C27.8344 6.85417 31.3333 9.9157 31.3333 13.7083ZM7.83333 31.9861C7.83333 27.4167 18.2778 24.9035 23.5 24.9035C28.7222 24.9035 39.1667 27.4167 39.1667 31.9861V34.2708H7.83333V31.9861Z" fill="#11102F"/>
</svg>
