<svg width="20" height="20" viewBox="0 0 20 20" fill="none" xmlns="http://www.w3.org/2000/svg">
<path d="M0.566162 3.03717V17.7349C0.566162 18.8897 1.50052 19.8346 2.66584 19.8346H17.3635C18.5184 19.8346 19.4632 18.8897 19.4632 17.7349V3.03717C19.4632 1.88235 18.5184 0.9375 17.3635 0.9375H2.66584C1.50052 0.9375 0.566162 1.88235 0.566162 3.03717ZM13.1642 7.23652C13.1642 8.97925 11.7574 10.386 10.0147 10.386C8.27196 10.386 6.86518 8.97925 6.86518 7.23652C6.86518 5.49379 8.27196 4.08701 10.0147 4.08701C11.7574 4.08701 13.1642 5.49379 13.1642 7.23652ZM3.71567 15.6352C3.71567 13.5355 7.91502 12.3807 10.0147 12.3807C12.1144 12.3807 16.3137 13.5355 16.3137 15.6352V16.685H3.71567V15.6352Z" fill="white"/>
</svg>
