<svg width="53" height="51" viewBox="0 0 53 51" fill="none" xmlns="http://www.w3.org/2000/svg">
<path d="M20.9754 4.04024C23.0425 -0.838988 29.9575 -0.838996 32.0246 4.04023L36.0987 13.6566C36.7782 15.2603 38.1209 16.4897 39.7782 17.0253L48.335 19.7908C53.8747 21.5812 53.8747 29.4188 48.335 31.2092L39.7782 33.9747C38.1209 34.5103 36.7782 35.7397 36.0987 37.3434L32.0246 46.9598C29.9575 51.839 23.0425 51.839 20.9754 46.9598L16.9013 37.3434C16.2218 35.7397 14.8791 34.5103 13.2218 33.9747L4.66504 31.2092C-0.874714 29.4188 -0.874713 21.5812 4.66504 19.7908L13.2218 17.0253C14.8791 16.4897 16.2218 15.2603 16.9013 13.6566L20.9754 4.04024Z" fill="#11102F"/>
</svg>
