<svg width="34" height="23" viewBox="0 0 34 23" fill="none" xmlns="http://www.w3.org/2000/svg">
<g clip-path="url(#clip0)">
<path d="M33.8376 11.1042C33.5682 10.801 27.1223 3.67786 16.9999 3.67786C6.87757 3.67786 0.431698 10.801 0.162331 11.1042C-0.0541918 11.3477 -0.0541918 11.6523 0.162331 11.8958C0.431698 12.199 6.87757 19.3221 16.9999 19.3221C27.1223 19.3221 33.5682 12.199 33.8376 11.8958C34.0541 11.6523 34.0541 11.3477 33.8376 11.1042ZM16.9999 17.7857C9.44057 17.7857 3.95163 12.9349 2.49321 11.4993C3.94891 10.0621 9.42209 5.21438 16.9999 5.21438C24.5593 5.21438 30.0482 10.0652 31.5067 11.5008C30.051 12.9379 24.5778 17.7857 16.9999 17.7857Z" fill="black"/>
<path d="M16.9999 6.32295C12.7802 6.32295 9.34714 8.64539 9.34714 11.4999C9.34714 14.3544 12.7802 16.6766 16.9999 16.6766C21.2196 16.6766 24.6526 14.3544 24.6526 11.4999C24.6526 8.64539 21.2197 6.32295 16.9999 6.32295ZM16.9999 15.1402C14.0325 15.1402 11.6184 13.5072 11.6184 11.4999C11.6184 9.49247 14.0325 7.85937 16.9999 7.85937C19.9674 7.85937 22.3814 9.49247 22.3814 11.4999C22.3814 13.5072 19.9674 15.1402 16.9999 15.1402Z" fill="black"/>
<path d="M16.9999 9.51654C15.3795 9.51654 14.0667 10.4045 14.0667 11.4999C14.0667 12.5953 15.3795 13.4833 16.9999 13.4833C18.6205 13.4833 19.9333 12.5953 19.9333 11.4999C19.9333 10.4045 18.6205 9.51654 16.9999 9.51654Z" fill="black"/>
</g>
<defs>
<clipPath id="clip0">
<rect width="34" height="23" fill="white"/>
</clipPath>
</defs>
</svg>
