<svg width="22" height="26" viewBox="0 0 22 26" fill="none" xmlns="http://www.w3.org/2000/svg">
<path d="M19.2743 0.834534H2.64484V2.91321H19.2743V0.834534ZM2.64484 25.7786H19.2743V23.7H2.64484V25.7786ZM19.2743 4.99189H2.64484C1.50157 4.99189 0.566162 5.92729 0.566162 7.07056V19.5426C0.566162 20.6859 1.50157 21.6213 2.64484 21.6213H19.2743C20.4175 21.6213 21.3529 20.6859 21.3529 19.5426V7.07056C21.3529 5.92729 20.4175 4.99189 19.2743 4.99189ZM10.9595 7.85007C12.2483 7.85007 13.2981 8.8998 13.2981 10.1886C13.2981 11.4774 12.2483 12.5271 10.9595 12.5271C9.67076 12.5271 8.62103 11.4774 8.62103 10.1886C8.62103 8.8998 9.67076 7.85007 10.9595 7.85007ZM16.1562 18.5033H5.76285V16.9443C5.76285 15.2086 9.22385 14.3459 10.9595 14.3459C12.6952 14.3459 16.1562 15.2086 16.1562 16.9443V18.5033Z" fill="white"/>
</svg>
