<svg width="33" height="27" viewBox="0 0 33 27" fill="none" xmlns="http://www.w3.org/2000/svg">
<path d="M33 3.17488C31.7859 3.71388 30.481 4.07687 29.1115 4.2405C30.5099 3.40312 31.5837 2.07625 32.0884 0.495C30.7808 1.2705 29.3315 1.83425 27.7887 2.13813C26.5554 0.82225 24.794 0 22.847 0C18.4759 0 15.2639 4.07825 16.2511 8.31188C10.626 8.03 5.6375 5.335 2.29763 1.23888C0.523875 4.28175 1.37775 8.26237 4.39175 10.2781C3.2835 10.2424 2.2385 9.9385 1.32687 9.43113C1.25262 12.5675 3.50075 15.5017 6.75675 16.1549C5.80387 16.4134 4.76025 16.4739 3.69875 16.2704C4.5595 18.9599 7.05925 20.9165 10.0238 20.9715C7.1775 23.2031 3.5915 24.2 0 23.7765C2.99612 25.6974 6.556 26.818 10.3785 26.818C22.9487 26.818 30.0506 16.2016 29.6216 6.67975C30.9444 5.72412 32.0925 4.532 33 3.17488Z" fill="white"/>
</svg>
